# Alias OBJ Model File
# Exported from SketchUp, (c) 2000-2012 Trimble Navigation Limited
# File units = meters

mtllib bloco_2x4.mtl

g Mesh1 pino_5x5cm1 bloco_2x4_1 Model

usemtl _1
v 0.025 0.1 0.025
vt -1.9685 0
vn -1 0 -0
v 0.025 0.1 0.075
vt 0 0
v 0.025 0.125 0.075
vt 0 0.984252
v 0.025 0.125 0.025
vt -1.9685 0.984252
f 1/1/1 2/2/1 3/3/1 4/4/1 

v 0.075 0.1 0.075
vn 0 -1 -0
vt 0 1.9685
v 0.075 0.1 0.025
vt -1.9685 1.9685
f 5/1/2 2/2/2 1/5/2 6/6/2 

vn 0 0 1
vt 1.9685 0
v 0.075 0.125 0.075
vt 1.9685 0.984252
f 2/2/3 5/7/3 7/8/3 3/3/3 

vn 1 0 -0
v 0.075 0.125 0.025
f 5/2/4 6/7/4 8/8/4 7/3/4 

vn 0 0 -1
f 6/1/5 1/2/5 4/3/5 8/4/5 

vn 0 1 -0
vt 1.9685 1.9685
f 3/2/6 7/7/6 8/9/6 4/5/6 

g Mesh2 pino_5x5cm2 bloco_2x4_1 Model

v 0.025 0.1 -0.075
v 0.025 0.1 -0.025
v 0.025 0.125 -0.025
v 0.025 0.125 -0.075
f 9/1/1 10/2/1 11/3/1 12/4/1 

v 0.075 0.1 -0.025
v 0.075 0.1 -0.075
f 13/1/2 10/2/2 9/5/2 14/6/2 

v 0.075 0.125 -0.025
f 10/2/3 13/7/3 15/8/3 11/3/3 

v 0.075 0.125 -0.075
f 13/2/4 14/7/4 16/8/4 15/3/4 

f 14/1/5 9/2/5 12/3/5 16/4/5 

f 11/2/6 15/7/6 16/9/6 12/5/6 

g Mesh3 pino_5x5cm3 bloco_2x4_1 Model

v 0.125 0.1 0.025
v 0.125 0.1 0.075
v 0.125 0.125 0.075
v 0.125 0.125 0.025
f 17/1/1 18/2/1 19/3/1 20/4/1 

v 0.175 0.1 0.075
v 0.175 0.1 0.025
f 21/1/2 18/2/2 17/5/2 22/6/2 

v 0.175 0.125 0.075
f 18/2/3 21/7/3 23/8/3 19/3/3 

v 0.175 0.125 0.025
f 21/2/4 22/7/4 24/8/4 23/3/4 

f 22/1/5 17/2/5 20/3/5 24/4/5 

f 19/2/6 23/7/6 24/9/6 20/5/6 

g Mesh4 pino_5x5cm4 bloco_2x4_1 Model

v -0.075 0.1 -0.075
v -0.075 0.1 -0.025
v -0.075 0.125 -0.025
v -0.075 0.125 -0.075
f 25/1/1 26/2/1 27/3/1 28/4/1 

v -0.025 0.1 -0.025
v -0.025 0.1 -0.075
f 29/1/2 26/2/2 25/5/2 30/6/2 

v -0.025 0.125 -0.025
f 26/2/3 29/7/3 31/8/3 27/3/3 

v -0.025 0.125 -0.075
f 29/2/4 30/7/4 32/8/4 31/3/4 

f 30/1/5 25/2/5 28/3/5 32/4/5 

f 27/2/6 31/7/6 32/9/6 28/5/6 

g Mesh5 pino_5x5cm5 bloco_2x4_1 Model

v 0.125 0.1 -0.075
v 0.125 0.1 -0.025
v 0.125 0.125 -0.025
v 0.125 0.125 -0.075
f 33/1/1 34/2/1 35/3/1 36/4/1 

v 0.175 0.1 -0.025
v 0.175 0.1 -0.075
f 37/1/2 34/2/2 33/5/2 38/6/2 

v 0.175 0.125 -0.025
f 34/2/3 37/7/3 39/8/3 35/3/3 

v 0.175 0.125 -0.075
f 37/2/4 38/7/4 40/8/4 39/3/4 

f 38/1/5 33/2/5 36/3/5 40/4/5 

f 35/2/6 39/7/6 40/9/6 36/5/6 

g Mesh6 pino_5x5cm6 bloco_2x4_1 Model

v -0.075 0.1 0.025
v -0.075 0.1 0.075
v -0.075 0.125 0.075
v -0.075 0.125 0.025
f 41/1/1 42/2/1 43/3/1 44/4/1 

v -0.025 0.1 0.075
v -0.025 0.1 0.025
f 45/1/2 42/2/2 41/5/2 46/6/2 

v -0.025 0.125 0.075
f 42/2/3 45/7/3 47/8/3 43/3/3 

v -0.025 0.125 0.025
f 45/2/4 46/7/4 48/8/4 47/3/4 

f 46/1/5 41/2/5 44/3/5 48/4/5 

f 43/2/6 47/7/6 48/9/6 44/5/6 

g Mesh7 pino_5x5cm7 bloco_2x4_1 Model

v -0.175 0.1 -0.075
v -0.175 0.1 -0.025
v -0.175 0.125 -0.025
v -0.175 0.125 -0.075
f 49/1/1 50/2/1 51/3/1 52/4/1 

v -0.125 0.1 -0.025
v -0.125 0.1 -0.075
f 53/1/2 50/2/2 49/5/2 54/6/2 

v -0.125 0.125 -0.025
f 50/2/3 53/7/3 55/8/3 51/3/3 

v -0.125 0.125 -0.075
f 53/2/4 54/7/4 56/8/4 55/3/4 

f 54/1/5 49/2/5 52/3/5 56/4/5 

f 51/2/6 55/7/6 56/9/6 52/5/6 

g Mesh8 pino_5x5cm8 bloco_2x4_1 Model

v -0.175 0.1 0.025
v -0.175 0.1 0.075
v -0.175 0.125 0.075
v -0.175 0.125 0.025
f 57/1/1 58/2/1 59/3/1 60/4/1 

v -0.125 0.1 0.075
v -0.125 0.1 0.025
f 61/1/2 58/2/2 57/5/2 62/6/2 

v -0.125 0.125 0.075
f 58/2/3 61/7/3 63/8/3 59/3/3 

v -0.125 0.125 0.025
f 61/2/4 62/7/4 64/8/4 63/3/4 

f 62/1/5 57/2/5 60/3/5 64/4/5 

f 59/2/6 63/7/6 64/9/6 60/5/6 

g Mesh9 forma_40x20cm1 bloco_2x4_1 Model

v -0.2 0 -0.1
vt -7.87402 0
v -0.2 0 0.1
v -0.2 0.1 0.1
vt 0 3.93701
v -0.2 0.1 -0.1
vt -7.87402 3.93701
f 65/10/1 66/2/1 67/11/1 68/12/1 

vt 0 7.87402
v -0.175 0 -0.075
vt -0.984252 6.88976
f 65/13/2 69/14/2 66/2/2

v 0.2 0 -0.1
vt -15.748 7.87402
f 69/14/2 65/13/2 70/15/2

vt -15.748 0
v 0.2 0.1 -0.1
vt -15.748 3.93701
f 70/16/5 65/2/5 68/11/5 71/17/5 

v -0.175 0.1 -0.075
vt 0.984252 6.88976
vt 15.748 7.87402
f 68/13/6 72/18/6 71/19/6

vt 0.984252 0.984252
f 72/18/6 68/13/6 58/20/6

f 67/2/6 58/20/6 68/13/6

v 0.2 0.1 0.1
vt 15.748 0
f 58/20/6 67/2/6 73/21/6

v 0.2 0 0.1
vt 15.748 3.93701
f 66/2/3 74/21/3 73/22/3 67/11/3 

v -0.175 0 0.075
vt -0.984252 0.984252
f 66/2/2 75/23/2 74/16/2

f 75/23/2 66/2/2 69/14/2

v -0.175 0 -0.025
vt -0.984252 4.92126
f 75/23/2 69/14/2 76/24/2

vt 4.92126 0
vt 6.88976 0
v -0.175 0.025 -0.075
vt 6.88976 0.984252
v -0.175 0.025 -0.025
vt 4.92126 0.984252
f 76/25/4 69/26/4 77/27/4 78/28/4 

vt 0.984252 0
v -0.125 0 -0.075
vt 2.95276 0
v -0.125 0.025 -0.075
vt 2.95276 0.984252
f 69/29/3 79/30/3 80/31/3 77/20/3 

vt -2.95276 6.88976
f 69/14/2 70/15/2 79/32/2

v -0.075 0 -0.075
vt -4.92126 6.88976
f 79/32/2 70/15/2 81/33/2

v -0.025 0 -0.075
vt -6.88976 6.88976
f 81/33/2 70/15/2 82/34/2

v 0.025 0 -0.075
vt -8.85827 6.88976
f 82/34/2 70/15/2 83/35/2

v 0.075 0 -0.075
vt -10.8268 6.88976
f 83/35/2 70/15/2 84/36/2

v 0.125 0 -0.075
vt -12.7953 6.88976
f 84/36/2 70/15/2 85/37/2

v 0.175 0 -0.075
vt -14.7638 6.88976
f 85/37/2 70/15/2 86/38/2

v 0.175 0 -0.025
vt -14.7638 4.92126
f 86/38/2 70/15/2 87/39/2

v 0.175 0 0.025
vt -14.7638 2.95276
f 87/39/2 70/15/2 88/40/2

v 0.175 0 0.075
vt -14.7638 0.984252
f 88/40/2 70/15/2 89/41/2

f 74/16/2 89/41/2 70/15/2

v 0.125 0 0.075
vt -12.7953 0.984252
f 74/16/2 90/42/2 89/41/2

v 0.075 0 0.075
vt -10.8268 0.984252
f 74/16/2 91/43/2 90/42/2

v 0.025 0 0.075
vt -8.85827 0.984252
f 74/16/2 92/44/2 91/43/2

v -0.025 0 0.075
vt -6.88976 0.984252
f 74/16/2 93/45/2 92/44/2

v -0.075 0 0.075
vt -4.92126 0.984252
f 74/16/2 94/46/2 93/45/2

v -0.125 0 0.075
vt -2.95276 0.984252
f 74/16/2 95/47/2 94/46/2

f 74/16/2 75/23/2 95/47/2

vt -2.95276 0
vt -0.984252 0
v -0.175 0.025 0.075
v -0.125 0.025 0.075
f 95/48/5 75/49/5 96/23/5 97/47/5 

v -0.175 0 0.025
v -0.175 0.025 0.025
f 75/29/4 98/30/4 99/31/4 96/20/4 

vt -0.984252 2.95276
f 75/23/2 76/24/2 98/50/2

v -0.125 0 -0.025
vt -2.95276 4.92126
f 100/51/2 98/50/2 76/24/2

v -0.125 0 0.025
vt -2.95276 2.95276
f 98/50/2 100/51/2 101/52/2

f 100/51/2 81/33/2 101/52/2

f 79/32/2 81/33/2 100/51/2

vt -6.88976 0
vt -4.92126 0
v -0.125 0.025 -0.025
f 79/53/1 100/54/1 102/46/1 80/45/1 

f 100/48/5 76/49/5 78/23/5 102/47/5 

f 80/32/2 102/51/2 78/24/2 77/14/2 

f 101/52/2 81/33/2 95/47/2

f 94/46/2 95/47/2 81/33/2

v -0.075 0 -0.025
vt -4.92126 4.92126
f 94/46/2 81/33/2 103/55/2

v -0.075 0.025 -0.075
v -0.075 0.025 -0.025
f 103/25/4 81/26/4 104/27/4 105/28/4 

v -0.025 0.025 -0.075
f 81/25/3 82/26/3 106/27/3 104/28/3 

v -0.025 0 -0.025
v -0.025 0.025 -0.025
f 82/53/1 107/54/1 108/46/1 106/45/1 

vt -6.88976 4.92126
f 82/34/2 83/35/2 107/56/2

v -0.025 0 0.025
vt -6.88976 2.95276
f 107/56/2 83/35/2 109/57/2

f 109/57/2 83/35/2 93/45/2

f 92/44/2 93/45/2 83/35/2

v 0.025 0 -0.025
vt -8.85827 4.92126
f 92/44/2 83/35/2 110/58/2

v 0.025 0.025 -0.075
v 0.025 0.025 -0.025
f 110/25/4 83/26/4 111/27/4 112/28/4 

vt 8.85827 0
vt 10.8268 0
v 0.075 0.025 -0.075
vt 10.8268 0.984252
vt 8.85827 0.984252
f 83/59/3 84/60/3 113/61/3 111/62/3 

v 0.075 0 -0.025
v 0.075 0.025 -0.025
f 84/53/1 114/54/1 115/46/1 113/45/1 

vt -10.8268 4.92126
f 84/36/2 85/37/2 114/63/2

v 0.075 0 0.025
vt -10.8268 2.95276
f 114/63/2 85/37/2 116/64/2

f 116/64/2 85/37/2 91/43/2

f 90/42/2 91/43/2 85/37/2

v 0.125 0 -0.025
vt -12.7953 4.92126
f 90/42/2 85/37/2 117/65/2

v 0.125 0.025 -0.075
v 0.125 0.025 -0.025
f 117/25/4 85/26/4 118/27/4 119/28/4 

vt 12.7953 0
vt 14.7638 0
v 0.175 0.025 -0.075
vt 14.7638 0.984252
vt 12.7953 0.984252
f 85/66/3 86/67/3 120/68/3 118/69/3 

v 0.175 0.025 -0.025
f 86/53/1 87/54/1 121/46/1 120/45/1 

vt -14.7638 0
vt -12.7953 0
f 87/70/5 117/71/5 119/42/5 121/41/5 

v 0.125 0 0.025
vt -12.7953 2.95276
f 87/39/2 122/72/2 117/65/2

f 122/72/2 87/39/2 88/40/2

v 0.175 0.025 0.025
v 0.125 0.025 0.025
f 122/66/3 88/67/3 123/68/3 124/69/3 

v 0.175 0.025 0.075
f 88/48/1 89/49/1 125/23/1 123/47/1 

v 0.125 0.025 0.075
f 89/70/5 90/71/5 126/42/5 125/41/5 

f 90/29/4 122/30/4 124/31/4 126/20/4 

f 90/42/2 117/65/2 122/72/2

f 123/40/2 125/41/2 126/42/2 124/72/2 

f 120/38/2 121/39/2 119/65/2 118/37/2 

v 0.075 0.025 0.075
v 0.075 0.025 0.025
f 116/48/1 91/49/1 127/23/1 128/47/1 

vt -10.8268 0
vt -8.85827 0
v 0.025 0.025 0.075
f 91/73/5 92/74/5 129/44/5 127/43/5 

v 0.025 0 0.025
v 0.025 0.025 0.025
f 92/29/4 130/30/4 131/31/4 129/20/4 

vt -8.85827 2.95276
f 92/44/2 110/58/2 130/75/2

f 114/63/2 130/75/2 110/58/2

f 130/75/2 114/63/2 116/64/2

f 130/59/3 116/60/3 128/61/3 131/62/3 

f 128/64/2 127/43/2 129/44/2 131/75/2 

f 114/73/5 110/74/5 112/44/5 115/43/5 

f 113/36/2 115/63/2 112/58/2 111/35/2 

v -0.025 0.025 0.075
v -0.025 0.025 0.025
f 109/48/1 93/49/1 132/23/1 133/47/1 

v -0.075 0.025 0.075
f 93/53/5 94/54/5 134/46/5 132/45/5 

v -0.075 0 0.025
v -0.075 0.025 0.025
f 94/29/4 135/30/4 136/31/4 134/20/4 

vt -4.92126 2.95276
f 94/46/2 103/55/2 135/76/2

f 107/56/2 135/76/2 103/55/2

f 135/76/2 107/56/2 109/57/2

f 135/25/3 109/26/3 133/27/3 136/28/3 

f 133/57/2 132/45/2 134/46/2 136/76/2 

f 107/53/5 103/54/5 105/46/5 108/45/5 

f 106/34/2 108/56/2 105/55/2 104/33/2 

v -0.125 0.025 0.025
f 101/48/1 95/49/1 97/23/1 137/47/1 

f 99/50/2 137/52/2 97/47/2 96/23/2 

f 98/29/3 101/30/3 137/31/3 99/20/3 

vt 7.87402 0
vt 7.87402 3.93701
f 74/2/4 70/77/4 71/78/4 73/11/4 

v 0.175 0.1 -0.075
vt 14.7638 6.88976
f 71/19/6 138/79/6 73/21/6

v 0.125 0.1 -0.075
vt 12.7953 6.88976
f 71/19/6 139/80/6 138/79/6

v 0.075 0.1 -0.075
vt 10.8268 6.88976
f 71/19/6 140/81/6 139/80/6

v 0.025 0.1 -0.075
vt 8.85827 6.88976
f 71/19/6 141/82/6 140/81/6

v -0.025 0.1 -0.075
vt 6.88976 6.88976
f 71/19/6 142/83/6 141/82/6

v -0.075 0.1 -0.075
vt 4.92126 6.88976
f 71/19/6 143/84/6 142/83/6

v -0.125 0.1 -0.075
vt 2.95276 6.88976
f 71/19/6 144/85/6 143/84/6

f 71/19/6 72/18/6 144/85/6

vt 2.95276 4.92126
vt 0.984252 4.92126
f 53/86/6 144/85/6 72/18/6 50/87/6 

f 53/86/6 42/28/6 144/85/6

vt 2.95276 2.95276
f 62/88/6 42/28/6 53/86/6

f 61/31/6 42/28/6 62/88/6

f 61/31/6 73/21/6 42/28/6

f 58/20/6 73/21/6 61/31/6

vt 0.984252 2.95276
f 62/88/6 57/89/6 58/20/6 61/31/6 

f 62/88/6 50/87/6 57/89/6

f 50/87/6 62/88/6 53/86/6

f 72/18/6 57/89/6 50/87/6

f 72/18/6 58/20/6 57/89/6

f 42/28/6 73/21/6 45/27/6

f 45/27/6 73/21/6 2/62/6

v 0.075 0.1 0.075
f 2/62/6 73/21/6 145/61/6

f 145/61/6 73/21/6 18/69/6

f 18/69/6 73/21/6 21/68/6

vt 14.7638 2.95276
f 21/68/6 73/21/6 22/90/6

vt 14.7638 4.92126
f 22/90/6 73/21/6 37/91/6

f 37/91/6 73/21/6 138/79/6

vt 12.7953 4.92126
f 37/91/6 138/79/6 139/80/6 34/92/6 

vt 12.7953 2.95276
f 139/80/6 17/93/6 34/92/6

f 139/80/6 18/69/6 17/93/6

f 139/80/6 140/81/6 18/69/6

v 0.075 0.1 -0.025
vt 10.8268 4.92126
f 146/94/6 18/69/6 140/81/6

v 0.075 0.1 0.025
vt 10.8268 2.95276
f 147/95/6 18/69/6 146/94/6

f 145/61/6 18/69/6 147/95/6

vt 8.85827 2.95276
f 145/61/6 147/95/6 1/96/6 2/62/6 

vt 8.85827 4.92126
f 147/95/6 10/97/6 1/96/6

f 10/97/6 147/95/6 146/94/6

f 146/94/6 140/81/6 141/82/6 10/97/6 

f 141/82/6 1/96/6 10/97/6

f 141/82/6 2/62/6 1/96/6

f 141/82/6 142/83/6 2/62/6

vt 6.88976 4.92126
f 29/98/6 2/62/6 142/83/6

vt 6.88976 2.95276
f 46/99/6 2/62/6 29/98/6

f 45/27/6 2/62/6 46/99/6

vt 4.92126 2.95276
f 45/27/6 46/99/6 41/100/6 42/28/6 

vt 4.92126 4.92126
f 46/99/6 26/101/6 41/100/6

f 26/101/6 46/99/6 29/98/6

f 29/98/6 142/83/6 143/84/6 26/101/6 

f 143/84/6 41/100/6 26/101/6

f 143/84/6 42/28/6 41/100/6

f 143/84/6 144/85/6 42/28/6

f 21/68/6 22/90/6 17/93/6 18/69/6 

f 22/90/6 34/92/6 17/93/6

f 34/92/6 22/90/6 37/91/6

