# Apple ModelIO OBJ File: block_2x4
mtllib block_2x4.mtl
g 
v 0.025 0.1 0.025
v 0.025 0.1 0.075
v 0.025 0.125 0.075
v 0.025 0.125 0.025
v 0.075 0.1 0.075
v 0.075 0.1 0.025
v 0.075 0.125 0.075
v 0.075 0.125 0.025
vn -1 0 -0
vn 0 -1 -0
vn 0 0 1
vn 1 0 -0
vn 0 0 -1
vn 0 1 -0
vt -1.9685 0
vt 0 0
vt 0 0.984252
vt -1.9685 0.984252
vt 0 1.9685
vt -1.9685 1.9685
vt 1.9685 0
vt 1.9685 0.984252
vt 1.9685 1.9685
usemtl material_1
f 1/1/1 2/2/1 3/3/1 4/4/1 
f 5/1/2 2/2/2 1/5/2 6/6/2 
f 2/2/3 5/7/3 7/8/3 3/3/3 
f 5/2/4 6/7/4 8/8/4 7/3/4 
f 6/1/5 1/2/5 4/3/5 8/4/5 
f 3/2/6 7/7/6 8/9/6 4/5/6 
s off
g _1
v 0.025 0.1 -0.075
v 0.025 0.1 -0.025
v 0.025 0.125 -0.025
v 0.025 0.125 -0.075
v 0.075 0.1 -0.025
v 0.075 0.1 -0.075
v 0.075 0.125 -0.025
v 0.075 0.125 -0.075
vn -1 0 -0
vn 0 -1 -0
vn 0 0 1
vn 1 0 -0
vn 0 0 -1
vn 0 1 -0
vt -1.9685 0
vt 0 0
vt 0 0.984252
vt -1.9685 0.984252
vt 0 1.9685
vt -1.9685 1.9685
vt 1.9685 0
vt 1.9685 0.984252
vt 1.9685 1.9685
usemtl material_2
f 9/10/7 10/11/7 11/12/7 12/13/7 
f 13/10/8 10/11/8 9/14/8 14/15/8 
f 10/11/9 13/16/9 15/17/9 11/12/9 
f 13/11/10 14/16/10 16/17/10 15/12/10 
f 14/10/11 9/11/11 12/12/11 16/13/11 
f 11/11/12 15/16/12 16/18/12 12/14/12 
s off
g _2
v 0.125 0.1 0.025
v 0.125 0.1 0.075
v 0.125 0.125 0.075
v 0.125 0.125 0.025
v 0.175 0.1 0.075
v 0.175 0.1 0.025
v 0.175 0.125 0.075
v 0.175 0.125 0.025
vn -1 0 -0
vn 0 -1 -0
vn 0 0 1
vn 1 0 -0
vn 0 0 -1
vn 0 1 -0
vt -1.9685 0
vt 0 0
vt 0 0.984252
vt -1.9685 0.984252
vt 0 1.9685
vt -1.9685 1.9685
vt 1.9685 0
vt 1.9685 0.984252
vt 1.9685 1.9685
usemtl material_3
f 17/19/13 18/20/13 19/21/13 20/22/13 
f 21/19/14 18/20/14 17/23/14 22/24/14 
f 18/20/15 21/25/15 23/26/15 19/21/15 
f 21/20/16 22/25/16 24/26/16 23/21/16 
f 22/19/17 17/20/17 20/21/17 24/22/17 
f 19/20/18 23/25/18 24/27/18 20/23/18 
s off
g _3
v -0.075 0.1 -0.075
v -0.075 0.1 -0.025
v -0.075 0.125 -0.025
v -0.075 0.125 -0.075
v -0.025 0.1 -0.025
v -0.025 0.1 -0.075
v -0.025 0.125 -0.025
v -0.025 0.125 -0.075
vn -1 0 -0
vn 0 -1 -0
vn 0 0 1
vn 1 0 -0
vn 0 0 -1
vn 0 1 -0
vt -1.9685 0
vt 0 0
vt 0 0.984252
vt -1.9685 0.984252
vt 0 1.9685
vt -1.9685 1.9685
vt 1.9685 0
vt 1.9685 0.984252
vt 1.9685 1.9685
usemtl material_4
f 25/28/19 26/29/19 27/30/19 28/31/19 
f 29/28/20 26/29/20 25/32/20 30/33/20 
f 26/29/21 29/34/21 31/35/21 27/30/21 
f 29/29/22 30/34/22 32/35/22 31/30/22 
f 30/28/23 25/29/23 28/30/23 32/31/23 
f 27/29/24 31/34/24 32/36/24 28/32/24 
s off
g _4
v 0.125 0.1 -0.075
v 0.125 0.1 -0.025
v 0.125 0.125 -0.025
v 0.125 0.125 -0.075
v 0.175 0.1 -0.025
v 0.175 0.1 -0.075
v 0.175 0.125 -0.025
v 0.175 0.125 -0.075
vn -1 0 -0
vn 0 -1 -0
vn 0 0 1
vn 1 0 -0
vn 0 0 -1
vn 0 1 -0
vt -1.9685 0
vt 0 0
vt 0 0.984252
vt -1.9685 0.984252
vt 0 1.9685
vt -1.9685 1.9685
vt 1.9685 0
vt 1.9685 0.984252
vt 1.9685 1.9685
usemtl material_5
f 33/37/25 34/38/25 35/39/25 36/40/25 
f 37/37/26 34/38/26 33/41/26 38/42/26 
f 34/38/27 37/43/27 39/44/27 35/39/27 
f 37/38/28 38/43/28 40/44/28 39/39/28 
f 38/37/29 33/38/29 36/39/29 40/40/29 
f 35/38/30 39/43/30 40/45/30 36/41/30 
s off
g _5
v -0.075 0.1 0.025
v -0.075 0.1 0.075
v -0.075 0.125 0.075
v -0.075 0.125 0.025
v -0.025 0.1 0.075
v -0.025 0.1 0.025
v -0.025 0.125 0.075
v -0.025 0.125 0.025
vn -1 0 -0
vn 0 -1 -0
vn 0 0 1
vn 1 0 -0
vn 0 0 -1
vn 0 1 -0
vt -1.9685 0
vt 0 0
vt 0 0.984252
vt -1.9685 0.984252
vt 0 1.9685
vt -1.9685 1.9685
vt 1.9685 0
vt 1.9685 0.984252
vt 1.9685 1.9685
usemtl material_6
f 41/46/31 42/47/31 43/48/31 44/49/31 
f 45/46/32 42/47/32 41/50/32 46/51/32 
f 42/47/33 45/52/33 47/53/33 43/48/33 
f 45/47/34 46/52/34 48/53/34 47/48/34 
f 46/46/35 41/47/35 44/48/35 48/49/35 
f 43/47/36 47/52/36 48/54/36 44/50/36 
s off
g _6
v -0.175 0.1 -0.075
v -0.175 0.1 -0.025
v -0.175 0.125 -0.025
v -0.175 0.125 -0.075
v -0.125 0.1 -0.025
v -0.125 0.1 -0.075
v -0.125 0.125 -0.025
v -0.125 0.125 -0.075
vn -1 0 -0
vn 0 -1 -0
vn 0 0 1
vn 1 0 -0
vn 0 0 -1
vn 0 1 -0
vt -1.9685 0
vt 0 0
vt 0 0.984252
vt -1.9685 0.984252
vt 0 1.9685
vt -1.9685 1.9685
vt 1.9685 0
vt 1.9685 0.984252
vt 1.9685 1.9685
usemtl material_7
f 49/55/37 50/56/37 51/57/37 52/58/37 
f 53/55/38 50/56/38 49/59/38 54/60/38 
f 50/56/39 53/61/39 55/62/39 51/57/39 
f 53/56/40 54/61/40 56/62/40 55/57/40 
f 54/55/41 49/56/41 52/57/41 56/58/41 
f 51/56/42 55/61/42 56/63/42 52/59/42 
s off
g _7
v -0.175 0.1 0.025
v -0.175 0.1 0.075
v -0.175 0.125 0.075
v -0.175 0.125 0.025
v -0.125 0.1 0.075
v -0.125 0.1 0.025
v -0.125 0.125 0.075
v -0.125 0.125 0.025
vn -1 0 -0
vn 0 -1 -0
vn 0 0 1
vn 1 0 -0
vn 0 0 -1
vn 0 1 -0
vt -1.9685 0
vt 0 0
vt 0 0.984252
vt -1.9685 0.984252
vt 0 1.9685
vt -1.9685 1.9685
vt 1.9685 0
vt 1.9685 0.984252
vt 1.9685 1.9685
usemtl material_8
f 57/64/43 58/65/43 59/66/43 60/67/43 
f 61/64/44 58/65/44 57/68/44 62/69/44 
f 58/65/45 61/70/45 63/71/45 59/66/45 
f 61/65/46 62/70/46 64/71/46 63/66/46 
f 62/64/47 57/65/47 60/66/47 64/67/47 
f 59/65/48 63/70/48 64/72/48 60/68/48 
s off
g _8
v -0.2 0 -0.1
v -0.2 0 0.1
v -0.2 0.1 0.1
v -0.2 0.1 -0.1
v -0.175 0 -0.075
v 0.2 0 -0.1
v 0.2 0.1 -0.1
v -0.175 0.1 -0.075
v -0.175 0.1 0.075
v 0.2 0.1 0.1
v 0.2 0 0.1
v -0.175 0 0.075
v -0.175 0 -0.025
v -0.175 0.025 -0.075
v -0.175 0.025 -0.025
v -0.125 0 -0.075
v -0.125 0.025 -0.075
v -0.075 0 -0.075
v -0.025 0 -0.075
v 0.025 0 -0.075
v 0.075 0 -0.075
v 0.125 0 -0.075
v 0.175 0 -0.075
v 0.175 0 -0.025
v 0.175 0 0.025
v 0.175 0 0.075
v 0.125 0 0.075
v 0.075 0 0.075
v 0.025 0 0.075
v -0.025 0 0.075
v -0.075 0 0.075
v -0.125 0 0.075
v -0.175 0.025 0.075
v -0.125 0.025 0.075
v -0.175 0 0.025
v -0.175 0.025 0.025
v -0.125 0 -0.025
v -0.125 0 0.025
v -0.125 0.025 -0.025
v -0.075 0 -0.025
v -0.075 0.025 -0.075
v -0.075 0.025 -0.025
v -0.025 0.025 -0.075
v -0.025 0 -0.025
v -0.025 0.025 -0.025
v -0.025 0 0.025
v 0.025 0 -0.025
v 0.025 0.025 -0.075
v 0.025 0.025 -0.025
v 0.075 0.025 -0.075
v 0.075 0 -0.025
v 0.075 0.025 -0.025
v 0.075 0 0.025
v 0.125 0 -0.025
v 0.125 0.025 -0.075
v 0.125 0.025 -0.025
v 0.175 0.025 -0.075
v 0.175 0.025 -0.025
v 0.125 0 0.025
v 0.175 0.025 0.025
v 0.125 0.025 0.025
v 0.175 0.025 0.075
v 0.125 0.025 0.075
v 0.075 0.025 0.075
v 0.075 0.025 0.025
v 0.025 0.025 0.075
v 0.025 0 0.025
v 0.025 0.025 0.025
v -0.025 0.025 0.075
v -0.025 0.025 0.025
v -0.075 0.025 0.075
v -0.075 0 0.025
v -0.075 0.025 0.025
v -0.125 0.025 0.025
v 0.175 0.1 -0.075
v 0.125 0.1 -0.075
v 0.075 0.1 -0.075
v 0.025 0.1 -0.075
v -0.025 0.1 -0.075
v -0.075 0.1 -0.075
v -0.125 0.1 -0.075
v -0.125 0.1 -0.025
v -0.175 0.1 -0.025
v -0.075 0.1 0.075
v -0.125 0.1 0.025
v -0.125 0.1 0.075
v -0.175 0.1 0.025
v -0.025 0.1 0.075
v 0.025 0.1 0.075
v 0.075 0.1 0.075
v 0.125 0.1 0.075
v 0.175 0.1 0.075
v 0.175 0.1 0.025
v 0.175 0.1 -0.025
v 0.125 0.1 -0.025
v 0.125 0.1 0.025
v 0.075 0.1 -0.025
v 0.075 0.1 0.025
v 0.025 0.1 0.025
v 0.025 0.1 -0.025
v -0.025 0.1 -0.025
v -0.025 0.1 0.025
v -0.075 0.1 0.025
v -0.075 0.1 -0.025
vn -1 0 -0
vn 0 -1 -0
vn 0 0 -1
vn 0 1 -0
vn 0 0 1
vn 1 0 -0
vt -7.87402 0
vt 0 0
vt 0 3.93701
vt -7.87402 3.93701
vt 0 7.87402
vt -0.984252 6.88976
vt -15.748 7.87402
vt -15.748 0
vt -15.748 3.93701
vt 0.984252 6.88976
vt 15.748 7.87402
vt 0.984252 0.984252
vt 15.748 0
vt 15.748 3.93701
vt -0.984252 0.984252
vt -0.984252 4.92126
vt 4.92126 0
vt 6.88976 0
vt 6.88976 0.984252
vt 4.92126 0.984252
vt 0.984252 0
vt 2.95276 0
vt 2.95276 0.984252
vt -2.95276 6.88976
vt -4.92126 6.88976
vt -6.88976 6.88976
vt -8.85827 6.88976
vt -10.8268 6.88976
vt -12.7953 6.88976
vt -14.7638 6.88976
vt -14.7638 4.92126
vt -14.7638 2.95276
vt -14.7638 0.984252
vt -12.7953 0.984252
vt -10.8268 0.984252
vt -8.85827 0.984252
vt -6.88976 0.984252
vt -4.92126 0.984252
vt -2.95276 0.984252
vt -2.95276 0
vt -0.984252 0
vt -0.984252 2.95276
vt -2.95276 4.92126
vt -2.95276 2.95276
vt -6.88976 0
vt -4.92126 0
vt -4.92126 4.92126
vt -6.88976 4.92126
vt -6.88976 2.95276
vt -8.85827 4.92126
vt 8.85827 0
vt 10.8268 0
vt 10.8268 0.984252
vt 8.85827 0.984252
vt -10.8268 4.92126
vt -10.8268 2.95276
vt -12.7953 4.92126
vt 12.7953 0
vt 14.7638 0
vt 14.7638 0.984252
vt 12.7953 0.984252
vt -14.7638 0
vt -12.7953 0
vt -12.7953 2.95276
vt -10.8268 0
vt -8.85827 0
vt -8.85827 2.95276
vt -4.92126 2.95276
vt 7.87402 0
vt 7.87402 3.93701
vt 14.7638 6.88976
vt 12.7953 6.88976
vt 10.8268 6.88976
vt 8.85827 6.88976
vt 6.88976 6.88976
vt 4.92126 6.88976
vt 2.95276 6.88976
vt 2.95276 4.92126
vt 0.984252 4.92126
vt 2.95276 2.95276
vt 0.984252 2.95276
vt 14.7638 2.95276
vt 14.7638 4.92126
vt 12.7953 4.92126
vt 12.7953 2.95276
vt 10.8268 4.92126
vt 10.8268 2.95276
vt 8.85827 2.95276
vt 8.85827 4.92126
vt 6.88976 4.92126
vt 6.88976 2.95276
vt 4.92126 2.95276
vt 4.92126 4.92126
usemtl material_9
f 65/73/49 66/74/49 67/75/49 68/76/49 
f 65/77/50 69/78/50 66/74/50 
f 69/78/50 65/77/50 70/79/50 
f 70/80/51 65/74/51 68/75/51 71/81/51 
f 68/77/52 72/82/52 71/83/52 
f 72/82/52 68/77/52 73/84/52 
f 67/74/52 73/84/52 68/77/52 
f 73/84/52 67/74/52 74/85/52 
f 66/74/53 75/85/53 74/86/53 67/75/53 
f 66/74/50 76/87/50 75/80/50 
f 76/87/50 66/74/50 69/78/50 
f 76/87/50 69/78/50 77/88/50 
f 77/89/54 69/90/54 78/91/54 79/92/54 
f 69/93/53 80/94/53 81/95/53 78/84/53 
f 69/78/50 70/79/50 80/96/50 
f 80/96/50 70/79/50 82/97/50 
f 82/97/50 70/79/50 83/98/50 
f 83/98/50 70/79/50 84/99/50 
f 84/99/50 70/79/50 85/100/50 
f 85/100/50 70/79/50 86/101/50 
f 86/101/50 70/79/50 87/102/50 
f 87/102/50 70/79/50 88/103/50 
f 88/103/50 70/79/50 89/104/50 
f 89/104/50 70/79/50 90/105/50 
f 75/80/50 90/105/50 70/79/50 
f 75/80/50 91/106/50 90/105/50 
f 75/80/50 92/107/50 91/106/50 
f 75/80/50 93/108/50 92/107/50 
f 75/80/50 94/109/50 93/108/50 
f 75/80/50 95/110/50 94/109/50 
f 75/80/50 96/111/50 95/110/50 
f 75/80/50 76/87/50 96/111/50 
f 96/112/51 76/113/51 97/87/51 98/111/51 
f 76/93/54 99/94/54 100/95/54 97/84/54 
f 76/87/50 77/88/50 99/114/50 
f 101/115/50 99/114/50 77/88/50 
f 99/114/50 101/115/50 102/116/50 
f 101/115/50 82/97/50 102/116/50 
f 80/96/50 82/97/50 101/115/50 
f 80/117/49 101/118/49 103/110/49 81/109/49 
f 101/112/51 77/113/51 79/87/51 103/111/51 
f 81/96/50 103/115/50 79/88/50 78/78/50 
f 102/116/50 82/97/50 96/111/50 
f 95/110/50 96/111/50 82/97/50 
f 95/110/50 82/97/50 104/119/50 
f 104/89/54 82/90/54 105/91/54 106/92/54 
f 82/89/53 83/90/53 107/91/53 105/92/53 
f 83/117/49 108/118/49 109/110/49 107/109/49 
f 83/98/50 84/99/50 108/120/50 
f 108/120/50 84/99/50 110/121/50 
f 110/121/50 84/99/50 94/109/50 
f 93/108/50 94/109/50 84/99/50 
f 93/108/50 84/99/50 111/122/50 
f 111/89/54 84/90/54 112/91/54 113/92/54 
f 84/123/53 85/124/53 114/125/53 112/126/53 
f 85/117/49 115/118/49 116/110/49 114/109/49 
f 85/100/50 86/101/50 115/127/50 
f 115/127/50 86/101/50 117/128/50 
f 117/128/50 86/101/50 92/107/50 
f 91/106/50 92/107/50 86/101/50 
f 91/106/50 86/101/50 118/129/50 
f 118/89/54 86/90/54 119/91/54 120/92/54 
f 86/130/53 87/131/53 121/132/53 119/133/53 
f 87/117/49 88/118/49 122/110/49 121/109/49 
f 88/134/51 118/135/51 120/106/51 122/105/51 
f 88/103/50 123/136/50 118/129/50 
f 123/136/50 88/103/50 89/104/50 
f 123/130/53 89/131/53 124/132/53 125/133/53 
f 89/112/49 90/113/49 126/87/49 124/111/49 
f 90/134/51 91/135/51 127/106/51 126/105/51 
f 91/93/54 123/94/54 125/95/54 127/84/54 
f 91/106/50 118/129/50 123/136/50 
f 124/104/50 126/105/50 127/106/50 125/136/50 
f 121/102/50 122/103/50 120/129/50 119/101/50 
f 117/112/49 92/113/49 128/87/49 129/111/49 
f 92/137/51 93/138/51 130/108/51 128/107/51 
f 93/93/54 131/94/54 132/95/54 130/84/54 
f 93/108/50 111/122/50 131/139/50 
f 115/127/50 131/139/50 111/122/50 
f 131/139/50 115/127/50 117/128/50 
f 131/123/53 117/124/53 129/125/53 132/126/53 
f 129/128/50 128/107/50 130/108/50 132/139/50 
f 115/137/51 111/138/51 113/108/51 116/107/51 
f 114/100/50 116/127/50 113/122/50 112/99/50 
f 110/112/49 94/113/49 133/87/49 134/111/49 
f 94/117/51 95/118/51 135/110/51 133/109/51 
f 95/93/54 136/94/54 137/95/54 135/84/54 
f 95/110/50 104/119/50 136/140/50 
f 108/120/50 136/140/50 104/119/50 
f 136/140/50 108/120/50 110/121/50 
f 136/89/53 110/90/53 134/91/53 137/92/53 
f 134/121/50 133/109/50 135/110/50 137/140/50 
f 108/117/51 104/118/51 106/110/51 109/109/51 
f 107/98/50 109/120/50 106/119/50 105/97/50 
f 102/112/49 96/113/49 98/87/49 138/111/49 
f 100/114/50 138/116/50 98/111/50 97/87/50 
f 99/93/53 102/94/53 138/95/53 100/84/53 
f 75/74/54 70/141/54 71/142/54 74/75/54 
f 71/83/52 139/143/52 74/85/52 
f 71/83/52 140/144/52 139/143/52 
f 71/83/52 141/145/52 140/144/52 
f 71/83/52 142/146/52 141/145/52 
f 71/83/52 143/147/52 142/146/52 
f 71/83/52 144/148/52 143/147/52 
f 71/83/52 145/149/52 144/148/52 
f 71/83/52 72/82/52 145/149/52 
f 146/150/52 145/149/52 72/82/52 147/151/52 
f 146/150/52 148/92/52 145/149/52 
f 149/152/52 148/92/52 146/150/52 
f 150/95/52 148/92/52 149/152/52 
f 150/95/52 74/85/52 148/92/52 
f 73/84/52 74/85/52 150/95/52 
f 149/152/52 151/153/52 73/84/52 150/95/52 
f 149/152/52 147/151/52 151/153/52 
f 147/151/52 149/152/52 146/150/52 
f 72/82/52 151/153/52 147/151/52 
f 72/82/52 73/84/52 151/153/52 
f 148/92/52 74/85/52 152/91/52 
f 152/91/52 74/85/52 153/126/52 
f 153/126/52 74/85/52 154/125/52 
f 154/125/52 74/85/52 155/133/52 
f 155/133/52 74/85/52 156/132/52 
f 156/132/52 74/85/52 157/154/52 
f 157/154/52 74/85/52 158/155/52 
f 158/155/52 74/85/52 139/143/52 
f 158/155/52 139/143/52 140/144/52 159/156/52 
f 140/144/52 160/157/52 159/156/52 
f 140/144/52 155/133/52 160/157/52 
f 140/144/52 141/145/52 155/133/52 
f 161/158/52 155/133/52 141/145/52 
f 162/159/52 155/133/52 161/158/52 
f 154/125/52 155/133/52 162/159/52 
f 154/125/52 162/159/52 163/160/52 153/126/52 
f 162/159/52 164/161/52 163/160/52 
f 164/161/52 162/159/52 161/158/52 
f 161/158/52 141/145/52 142/146/52 164/161/52 
f 142/146/52 163/160/52 164/161/52 
f 142/146/52 153/126/52 163/160/52 
f 142/146/52 143/147/52 153/126/52 
f 165/162/52 153/126/52 143/147/52 
f 166/163/52 153/126/52 165/162/52 
f 152/91/52 153/126/52 166/163/52 
f 152/91/52 166/163/52 167/164/52 148/92/52 
f 166/163/52 168/165/52 167/164/52 
f 168/165/52 166/163/52 165/162/52 
f 165/162/52 143/147/52 144/148/52 168/165/52 
f 144/148/52 167/164/52 168/165/52 
f 144/148/52 148/92/52 167/164/52 
f 144/148/52 145/149/52 148/92/52 
f 156/132/52 157/154/52 160/157/52 155/133/52 
f 157/154/52 159/156/52 160/157/52 
f 159/156/52 157/154/52 158/155/52 
s off
