# Alias OBJ Model File
# Exported from SketchUp, (c) 2000-2012 Trimble Navigation Limited
# File units = meters

mtllib block_2x2.mtl

g Mesh1 pino_5x5cm1 bloco_2x2_1 Model

usemtl _3
v -0.075 0.1 -0.075
vt -1.9685 0
vn -1 0 -0
v -0.075 0.1 -0.025
vt 0 0
v -0.075 0.125 -0.025
vt 0 0.984252
v -0.075 0.125 -0.075
vt -1.9685 0.984252
f 1/1/1 2/2/1 3/3/1 4/4/1 

v -0.025 0.1 -0.025
vn 0 -1 -0
vt 0 1.9685
v -0.025 0.1 -0.075
vt -1.9685 1.9685
f 5/1/2 2/2/2 1/5/2 6/6/2 

vn 0 0 1
vt 1.9685 0
v -0.025 0.125 -0.025
vt 1.9685 0.984252
f 2/2/3 5/7/3 7/8/3 3/3/3 

vn 1 0 -0
v -0.025 0.125 -0.075
f 5/2/4 6/7/4 8/8/4 7/3/4 

vn 0 0 -1
f 6/1/5 1/2/5 4/3/5 8/4/5 

vn 0 1 -0
vt 1.9685 1.9685
f 3/2/6 7/7/6 8/9/6 4/5/6 

g Mesh2 pino_5x5cm2 bloco_2x2_1 Model

v 0.025 0.1 -0.075
v 0.025 0.1 -0.025
v 0.025 0.125 -0.025
v 0.025 0.125 -0.075
f 9/1/1 10/2/1 11/3/1 12/4/1 

v 0.075 0.1 -0.025
v 0.075 0.1 -0.075
f 13/1/2 10/2/2 9/5/2 14/6/2 

v 0.075 0.125 -0.025
f 10/2/3 13/7/3 15/8/3 11/3/3 

v 0.075 0.125 -0.075
f 13/2/4 14/7/4 16/8/4 15/3/4 

f 14/1/5 9/2/5 12/3/5 16/4/5 

f 11/2/6 15/7/6 16/9/6 12/5/6 

g Mesh3 pino_5x5cm3 bloco_2x2_1 Model

v 0.025 0.1 0.025
v 0.025 0.1 0.075
v 0.025 0.125 0.075
v 0.025 0.125 0.025
f 17/1/1 18/2/1 19/3/1 20/4/1 

v 0.075 0.1 0.075
v 0.075 0.1 0.025
f 21/1/2 18/2/2 17/5/2 22/6/2 

v 0.075 0.125 0.075
f 18/2/3 21/7/3 23/8/3 19/3/3 

v 0.075 0.125 0.025
f 21/2/4 22/7/4 24/8/4 23/3/4 

f 22/1/5 17/2/5 20/3/5 24/4/5 

f 19/2/6 23/7/6 24/9/6 20/5/6 

g Mesh4 pino_5x5cm4 bloco_2x2_1 Model

v -0.075 0.1 0.025
v -0.075 0.1 0.075
v -0.075 0.125 0.075
v -0.075 0.125 0.025
f 25/1/1 26/2/1 27/3/1 28/4/1 

v -0.025 0.1 0.075
v -0.025 0.1 0.025
f 29/1/2 26/2/2 25/5/2 30/6/2 

v -0.025 0.125 0.075
f 26/2/3 29/7/3 31/8/3 27/3/3 

v -0.025 0.125 0.025
f 29/2/4 30/7/4 32/8/4 31/3/4 

f 30/1/5 25/2/5 28/3/5 32/4/5 

f 27/2/6 31/7/6 32/9/6 28/5/6 

g Mesh5 Forma_20x20cm1 bloco_2x2_1 Model

v -0.1 0.1 0.1
vt 0.984252 0.984252
v -0.1 0.1 -0.1
vt 0 7.87402
f 33/2/6 26/10/6 34/11/6

v 0.1 0.1 0.1
vt 7.87402 0
f 26/10/6 33/2/6 35/12/6

v -0.1 0 0.1
v 0.1 0 0.1
vt 7.87402 3.93701
vt 0 3.93701
f 36/2/3 37/12/3 35/13/3 33/14/3 

v -0.075 0 0.075
vt -0.984252 0.984252
vt -7.87402 0
f 36/2/2 38/15/2 37/16/2

v -0.075 0 -0.075
vt -0.984252 6.88976
f 38/15/2 36/2/2 39/17/2

v -0.1 0 -0.1
f 40/11/2 39/17/2 36/2/2

v 0.1 0 -0.1
vt -7.87402 7.87402
f 39/17/2 40/11/2 41/18/2

v 0.1 0.1 -0.1
vt -7.87402 3.93701
f 41/16/5 40/2/5 34/14/5 42/19/5 

f 40/16/1 36/2/1 33/14/1 34/19/1 

v -0.075 0.1 -0.075
vt 0.984252 6.88976
vt 7.87402 7.87402
f 34/11/6 43/20/6 42/21/6

f 43/20/6 34/11/6 26/10/6

vt 0.984252 2.95276
f 43/20/6 26/10/6 25/22/6

vt 2.95276 0.984252
vt 2.95276 2.95276
f 29/23/6 30/24/6 25/22/6 26/10/6 

vt 4.92126 0.984252
f 29/23/6 18/25/6 30/24/6

f 29/23/6 35/12/6 18/25/6

f 26/10/6 35/12/6 29/23/6

vt 6.88976 0.984252
f 18/25/6 35/12/6 21/26/6

vt 6.88976 2.95276
f 21/26/6 35/12/6 22/27/6

vt 6.88976 4.92126
f 22/27/6 35/12/6 13/28/6

v 0.075 0.1 -0.075
vt 6.88976 6.88976
f 13/28/6 35/12/6 44/29/6

f 42/21/6 44/29/6 35/12/6

v 0.025 0.1 -0.075
vt 4.92126 6.88976
f 42/21/6 45/30/6 44/29/6

v -0.025 0.1 -0.075
vt 2.95276 6.88976
f 42/21/6 46/31/6 45/30/6

f 42/21/6 43/20/6 46/31/6

vt 2.95276 4.92126
vt 0.984252 4.92126
f 5/32/6 46/31/6 43/20/6 2/33/6 

f 5/32/6 18/25/6 46/31/6

f 30/24/6 18/25/6 5/32/6

f 2/33/6 30/24/6 5/32/6

f 30/24/6 2/33/6 25/22/6

f 43/20/6 25/22/6 2/33/6

f 45/30/6 46/31/6 18/25/6

vt 4.92126 2.95276
f 45/30/6 18/25/6 17/34/6

f 21/26/6 22/27/6 17/34/6 18/25/6 

vt 4.92126 4.92126
f 22/27/6 10/35/6 17/34/6

f 10/35/6 22/27/6 13/28/6

f 13/28/6 44/29/6 45/30/6 10/35/6 

f 45/30/6 17/34/6 10/35/6

f 37/2/4 41/12/4 42/13/4 35/14/4 

v 0.075 0 0.075
vt -6.88976 0.984252
f 37/16/2 47/36/2 41/18/2

v 0.025 0 0.075
vt -4.92126 0.984252
f 37/16/2 48/37/2 47/36/2

v -0.025 0 0.075
vt -2.95276 0.984252
f 37/16/2 49/38/2 48/37/2

f 37/16/2 38/15/2 49/38/2

vt -2.95276 0
vt -0.984252 0
v -0.075 0.025 0.075
v -0.025 0.025 0.075
f 49/39/5 38/40/5 50/15/5 51/38/5 

vt 0.984252 0
v -0.075 0 0.025
vt 2.95276 0
v -0.075 0.025 0.025
f 38/41/4 52/42/4 53/23/4 50/10/4 

v -0.075 0 -0.025
vt -0.984252 4.92126
vt -0.984252 2.95276
f 38/15/2 54/43/2 52/44/2

f 38/15/2 39/17/2 54/43/2

vt 4.92126 0
vt 6.88976 0
v -0.075 0.025 -0.075
v -0.075 0.025 -0.025
f 54/45/4 39/46/4 55/26/4 56/25/4 

v -0.025 0 -0.075
v -0.025 0.025 -0.075
f 39/41/3 57/42/3 58/23/3 55/10/3 

vt -2.95276 6.88976
f 39/17/2 41/18/2 57/47/2

v 0.025 0 -0.075
vt -4.92126 6.88976
f 57/47/2 41/18/2 59/48/2

v 0.075 0 -0.075
vt -6.88976 6.88976
f 59/48/2 41/18/2 60/49/2

v 0.075 0 -0.025
vt -6.88976 4.92126
f 60/49/2 41/18/2 61/50/2

v 0.075 0 0.025
vt -6.88976 2.95276
f 61/50/2 41/18/2 62/51/2

f 62/51/2 41/18/2 47/36/2

v 0.075 0.025 0.075
v 0.075 0.025 0.025
f 62/39/1 47/40/1 63/15/1 64/38/1 

vt -6.88976 0
vt -4.92126 0
v 0.025 0.025 0.075
f 47/52/5 48/53/5 65/37/5 63/36/5 

v 0.025 0 0.025
v 0.025 0.025 0.025
f 48/41/4 66/42/4 67/23/4 65/10/4 

v 0.025 0 -0.025
vt -4.92126 4.92126
vt -4.92126 2.95276
f 48/37/2 68/54/2 66/55/2

f 48/37/2 59/48/2 68/54/2

f 48/37/2 49/38/2 59/48/2

v -0.025 0 0.025
vt -2.95276 2.95276
f 69/56/2 59/48/2 49/38/2

v -0.025 0 -0.025
vt -2.95276 4.92126
f 70/57/2 59/48/2 69/56/2

f 57/47/2 59/48/2 70/57/2

v -0.025 0.025 -0.025
f 57/52/1 70/53/1 71/37/1 58/36/1 

f 70/39/5 54/40/5 56/15/5 71/38/5 

f 70/57/2 52/44/2 54/43/2

f 52/44/2 70/57/2 69/56/2

v -0.025 0.025 0.025
f 52/41/3 69/42/3 72/23/3 53/10/3 

f 69/39/1 49/40/1 51/15/1 72/38/1 

f 72/56/2 51/38/2 50/15/2 53/44/2 

f 58/47/2 71/57/2 56/43/2 55/17/2 

v 0.025 0.025 -0.075
v 0.025 0.025 -0.025
f 68/45/4 59/46/4 73/26/4 74/25/4 

v 0.075 0.025 -0.075
f 59/45/3 60/46/3 75/26/3 73/25/3 

v 0.075 0.025 -0.025
f 60/52/1 61/53/1 76/37/1 75/36/1 

f 61/52/5 68/53/5 74/37/5 76/36/5 

f 61/50/2 66/55/2 68/54/2

f 66/55/2 61/50/2 62/51/2

f 66/45/3 62/46/3 64/26/3 67/25/3 

f 64/51/2 63/36/2 65/37/2 67/55/2 

f 75/49/2 76/50/2 74/54/2 73/48/2 

